<svg xmlns="http://www.w3.org/2000/svg" viewBox="0 0 900 700" role="img" aria-labelledby="title desc"><title id="title">Editorial portrait silhouette</title><desc id="desc">Abstract elegant human silhouette with gold and dark geometric lighting, without nudity or explicit content.</desc><defs><linearGradient id="bg" x1="0" y1="0" x2="1" y2="1"><stop offset="0" stop-color="#151923"/><stop offset="1" stop-color="#08090d"/></linearGradient><linearGradient id="gold" x1="0" y1="0" x2="1" y2="1"><stop offset="0" stop-color="#f5dc76"/><stop offset="1" stop-color="#b38b22"/></linearGradient></defs><rect width="900" height="700" rx="32" fill="url(#bg)"/><circle cx="650" cy="170" r="150" fill="#e7c33f" opacity=".08"/><path d="M610 90c-62 0-108 49-108 112 0 35 16 64 43 84-65 35-112 91-135 167l-39 137h405l-35-139c-20-76-67-132-133-165 28-21 45-53 45-88 0-61-38-108-98-108z" fill="#202532" stroke="#e7c33f" stroke-opacity=".55" stroke-width="3"/><path d="M545 286c-39 30-65 75-76 130l-23 96h245l-25-97c-12-49-39-93-78-125" fill="#0c1018"/><path d="M545 105c-38 0-68 32-68 73 0 43 31 78 68 78s68-35 68-78c0-41-30-73-68-73z" fill="#303747"/><path d="M350 600h430" stroke="url(#gold)" stroke-width="2" opacity=".7"/><path d="M110 112h210M110 132h140M110 152h175" stroke="#e7c33f" stroke-width="2" opacity=".5"/><text x="110" y="570" fill="#e7c33f" font-family="Arial,sans-serif" font-size="18" letter-spacing="5">PECATHO</text><text x="110" y="602" fill="#aeb5c4" font-family="Arial,sans-serif" font-size="13" letter-spacing="2">PRESENÇA · ESTILO · CONEXÃO</text></svg>